<svg width="101" height="48" viewBox="0 0 101 48" fill="none" xmlns="http://www.w3.org/2000/svg">
<g filter="url(#filter0_d_0_1)">
<path d="M92.0778 33.6897C88.9034 36.3265 84.7854 37.9999 80.3027 37.9999C73.6323 37.9999 67.7768 34.3858 64.6025 29.1124L65.7909 23.7249L71.0585 22.7632C72.281 26.6444 75.97 29.4921 80.3027 29.4921C82.4045 29.4921 84.3564 28.8382 85.965 27.678L91.0268 28.4374L92.0778 33.6897Z" fill="#43BE8D"/>
<path d="M92.0776 33.6899L91.0266 28.4376L85.9648 27.6782C84.3562 28.8384 82.4043 29.4923 80.3025 29.4923V38.0001C84.7853 38.0001 88.9032 36.3267 92.0776 33.6899Z" fill="#43BE8D"/>
<path d="M70.6508 20C70.6508 20.9702 70.8009 21.8983 71.0583 22.7632L64.6024 29.1125C62.9938 26.4546 62 23.3327 62 20C62 16.6671 62.9938 13.5453 64.6024 10.8875L69.7838 11.7645L71.0583 17.2367C70.8009 18.1014 70.6508 19.0296 70.6508 20Z" fill="#43BE8D"/>
<path d="M98.6049 20C98.6049 25.4843 96.024 30.3992 92.0775 33.6898L85.9647 27.6781C87.2087 26.7921 88.2597 25.6109 88.946 24.2188H80.3024C79.7018 24.2188 79.23 23.7546 79.23 23.1641V16.8359C79.23 16.2452 79.7018 15.7812 80.3024 15.7812H97.2322C97.747 15.7812 98.1974 16.1398 98.2832 16.646C98.4977 17.743 98.6049 18.882 98.6049 20Z" fill="#43BE8D"/>
<path d="M88.9462 24.2188C88.2599 25.6109 87.2088 26.7921 85.9649 27.6781L92.0776 33.6898C96.0241 30.3992 98.605 25.4844 98.605 20C98.605 18.882 98.4978 17.743 98.2832 16.646C98.1975 16.1398 97.747 15.7812 97.2323 15.7812H80.3025V24.2188H88.9462Z" fill="#43BE8D"/>
<path d="M92.378 7.02727C92.3995 7.32259 92.2708 7.59687 92.0778 7.80774L87.4878 12.3007C87.1233 12.6804 86.5227 12.7226 86.0938 12.4062C84.3992 11.1617 82.4045 10.5078 80.3027 10.5078C75.97 10.5078 72.281 13.3554 71.0585 17.2367L64.6025 10.8875C67.7768 5.61406 73.6323 2 80.3027 2C84.5709 2 88.7318 3.54688 91.992 6.2468C92.2279 6.43672 92.3566 6.73196 92.378 7.02727Z" fill="#43BE8D"/>
<path d="M86.0935 12.4062C86.5225 12.7227 87.123 12.6804 87.4876 12.3007L92.0775 7.80774C92.2706 7.59687 92.3993 7.32266 92.3778 7.02727C92.3563 6.73189 92.2277 6.43672 91.9917 6.2468C88.7317 3.54688 84.5707 2 80.3025 2V10.5078C82.4044 10.5078 84.399 11.1617 86.0935 12.4062Z" fill="#43BE8D"/>
</g>
<g filter="url(#filter1_d_0_1)">
<path d="M46.605 20.1095C46.605 10.1055 38.4132 2 28.3025 2C18.1919 2 10 10.1055 10 20.1095C10 29.1482 16.693 36.6403 25.4428 38V25.3445H20.7933V20.1095H25.4428V16.1196C25.4428 11.5813 28.1734 9.0744 32.3556 9.0744C34.3586 9.0744 36.453 9.42783 36.453 9.42783V13.8822H34.1446C31.8715 13.8822 31.1623 15.2784 31.1623 16.7103V20.1095H36.2383L35.4265 25.3445H31.1623V38C39.9121 36.6403 46.605 29.1482 46.605 20.1095Z" fill="#43BE8D"/>
</g>
<defs>
<filter id="filter0_d_0_1" x="52" y="0" width="48.605" height="48" filterUnits="userSpaceOnUse" color-interpolation-filters="sRGB">
<feFlood flood-opacity="0" result="BackgroundImageFix"/>
<feColorMatrix in="SourceAlpha" type="matrix" values="0 0 0 0 0 0 0 0 0 0 0 0 0 0 0 0 0 0 127 0" result="hardAlpha"/>
<feOffset dx="-4" dy="4"/>
<feGaussianBlur stdDeviation="3"/>
<feComposite in2="hardAlpha" operator="out"/>
<feColorMatrix type="matrix" values="0 0 0 0 0 0 0 0 0 0 0 0 0 0 0 0 0 0 0.1 0"/>
<feBlend mode="normal" in2="BackgroundImageFix" result="effect1_dropShadow_0_1"/>
<feBlend mode="normal" in="SourceGraphic" in2="effect1_dropShadow_0_1" result="shape"/>
</filter>
<filter id="filter1_d_0_1" x="0" y="0" width="48.605" height="48" filterUnits="userSpaceOnUse" color-interpolation-filters="sRGB">
<feFlood flood-opacity="0" result="BackgroundImageFix"/>
<feColorMatrix in="SourceAlpha" type="matrix" values="0 0 0 0 0 0 0 0 0 0 0 0 0 0 0 0 0 0 127 0" result="hardAlpha"/>
<feOffset dx="-4" dy="4"/>
<feGaussianBlur stdDeviation="3"/>
<feComposite in2="hardAlpha" operator="out"/>
<feColorMatrix type="matrix" values="0 0 0 0 0 0 0 0 0 0 0 0 0 0 0 0 0 0 0.1 0"/>
<feBlend mode="normal" in2="BackgroundImageFix" result="effect1_dropShadow_0_1"/>
<feBlend mode="normal" in="SourceGraphic" in2="effect1_dropShadow_0_1" result="shape"/>
</filter>
</defs>
</svg>
